<svg xmlns="http://www.w3.org/2000/svg" viewBox="0 0 110.77 110.49"><defs><style>.cls-1{fill:#393E46;}</style></defs><g id="Capa_2" data-name="Capa 2"><g id="Capa_1-2" data-name="Capa 1"><path class="cls-1" d="M110.67,62.9c-.12-4.83-2.15-9-6.53-11-3.53-1.6-4.31-3.6-4.19-7.17.27-8.14-2.13-10.41-10.12-10.52-2.5,0-11-5.91-11.6-8.08-.09-.29-.18-.79,0-.92,3.43-3.08,4.51-8.55,10.06-9.54A7.8,7.8,0,0,0,94.7,6.08,8,8,0,0,0,85.14.23C80.42,1.45,77.8,6,79.73,10.64c1,2.32.44,3.64-1,5.22A40.91,40.91,0,0,0,75,20.53c-1.21,1.87-2.33,2.13-4.46,1.17-10.1-4.52-20.3-4.38-30.47,0-.85.36-1.84,1.49-2.68.56-2.33-2.59-4.5-5.33-6.65-8.08-1.38-1.76.63-3,.92-4.51A8,8,0,0,0,26,.34a7.79,7.79,0,0,0-9.6,5c-1.43,3.87.38,9.15,4.4,9.7,5.75.79,7.53,5.37,10.66,8.74a3.82,3.82,0,0,1,1.15,2.07c.06,1.34-8.71,8.31-10.29,8.39-10.26.47-11.54,1.72-11.57,12.18,0,2.41-.42,3.81-2.94,4.85C2.76,53.35.34,57.68.14,63.07c-.2,5.15-.17,10.32,0,15.47C.29,84.13,2.74,88.48,8,90.79a4.34,4.34,0,0,1,3,3.87c1.6,9.72,8.87,15.7,18.82,15.78,8.49.07,17,0,25.46,0,8.82,0,17.65.1,26.46,0C91,110.28,98.45,104,99.8,95a4.74,4.74,0,0,1,3.2-4.27c5-2.26,7.53-6.4,7.67-11.85S110.8,68.22,110.67,62.9ZM87.08,5.47A2.34,2.34,0,0,1,89.55,8a2.7,2.7,0,0,1-2.7,2.5,2.5,2.5,0,0,1-2.34-2.68A2.22,2.22,0,0,1,87.08,5.47Zm-63.27,5a2.43,2.43,0,0,1-2.41-3,2.31,2.31,0,0,1,2.81-2.06,2.56,2.56,0,0,1,2.3,2.68C26.09,9.48,25.34,10.61,23.81,10.49ZM10.65,85.59C7,84.82,5.38,82.28,5.71,79.2c.83-7.7-3.34-16.42,4.94-22.66ZM78.3,34H33.37C41,20.59,65.15,20.25,78.3,34ZM94.76,91.11c0,8.22-4.88,13.77-13.09,13.9q-26.19.45-52.39,0c-8.18-.13-13.2-5.6-13.27-13.81C15.87,75.58,16,60,15.9,44.32c0-3.74,1.4-4.92,5-4.87,11.48.16,23,.06,34.44.06,11.31,0,22.63.12,33.93-.07,3.94-.06,5.66.88,5.59,5.28C94.63,60.18,94.82,75.65,94.76,91.11Zm10.15-9.89a4.18,4.18,0,0,1-.83,1.77c-.87,1.16-1.7,2.93-3.32,2.46S100,83.15,100,82c-.08-8.53,0-17.06,0-26.08,3,1,4.6,2.74,4.93,5.08A73.52,73.52,0,0,1,104.91,81.22Z"/><path class="cls-1" d="M55.36,97.38a30.38,30.38,0,0,1-11.08-2.75c-1.5-.71-2.39-1.83-1.73-3.57s2.25-2,3.69-1.37a21,21,0,0,0,18.24,0c1.44-.67,3-.5,3.81,1.19.94,2-.36,3.06-2,3.82A29.77,29.77,0,0,1,55.36,97.38Z"/><path class="cls-1" d="M74,49.85a15.84,15.84,0,1,0,15.67,16A16,16,0,0,0,74,49.85Zm-.39,26.34A10.54,10.54,0,0,1,63.42,65.5a10.4,10.4,0,0,1,20.79.42A10.49,10.49,0,0,1,73.62,76.19Z"/><path class="cls-1" d="M37.24,49.85a15.84,15.84,0,1,0-.42,31.67,15.84,15.84,0,0,0,.42-31.67Zm-.46,26.34A10.4,10.4,0,0,1,26.67,65.46,10.15,10.15,0,0,1,37.29,55.35,10.49,10.49,0,0,1,47.54,66,10.7,10.7,0,0,1,36.78,76.19Z"/><path class="cls-1" d="M74,70.94c-3.54-.31-5.43-2-5.35-5.4.07-3.11,1.85-4.92,4.94-5,3.3-.08,5.27,1.66,5.35,5.06S77,70.59,74,70.94Z"/><path class="cls-1" d="M37.06,70.92c-3.29-.28-5.18-2-5.21-5.09,0-3.36,1.9-5.27,5.3-5.27,3.22,0,4.94,1.9,5,5C42.24,69,40.26,70.69,37.06,70.92Z"/></g></g></svg>