<svg xmlns="http://www.w3.org/2000/svg" viewBox="0 0 137.27 140.94"><defs><style>.cls-1{fill:#393E46;}</style></defs><g id="Capa_2" data-name="Capa 2"><g id="Capa_1-2" data-name="Capa 1"><path class="cls-1" d="M47.45,107.42a6.8,6.8,0,0,0,1.78-1.2,2,2,0,0,0-.28-2.71c-3.35-3.43-6.74-6.85-10.19-10.19a2.19,2.19,0,0,0-3.15-.08C34.79,94,34.32,95,35,95.88a87.78,87.78,0,0,0,11.19,11.21C46.43,107.28,46.84,107.27,47.45,107.42Z"/><path class="cls-1" d="M.92,108.25c2.24,2.37,4.16.58,5.9-1.16Q17.43,96.46,28.06,85.84c1.41-1.41,3.23-3,1.67-5.14-3.68-5.12-3.55-11-2.05-16.36,3.11-11.21,1.7-22.49,1.93-33.78.05-2.33-2.87-6.79,3.16-6.86,6.41-.08,9,1.5,9,7.16a53.9,53.9,0,0,0,4.66,21.3,27.78,27.78,0,0,0,3.07,5.67c4.77,6.49,4.75,13.29,0,19.86-1.4,1.94-3.42,4-.79,6s4.57-.33,6.13-2.35a21.61,21.61,0,0,0,.56-26.1c-2.69-3.61-2.45-6.09-.17-9.66C62.39,34.48,69.11,23.15,76,11.92a34.36,34.36,0,0,1,2.18-3.35c1.5-1.88,3.4-2.81,5.69-1.42s2.11,3.56,1,5.67c-4.68,8.65-9,17.51-14.21,25.84-3.46,5.54-3.07,9.6,1.05,14.56,6.06,7.31,11.43,15.19,17,22.92,1.67,2.33,3.43,3.08,6.36,2.5,9.48-1.87,19-3.39,28.55-5.14,3.36-.62,6.26-.19,7.05,3.56s-1.75,5.36-5.12,5.94c-9.69,1.66-19.37,3.44-29.09,5a11.34,11.34,0,0,0-6.49,3.33c-4.78,4.65-9.29,9.62-14.82,13.42-4.82,3.32-9.7,6.58-16,5.92-1.66-.18-2.77.93-3.84,2l-21.59,21.6c-1.58,1.58-3.34,3.25-1.2,5.5,2.39,2.51,4.2.52,5.88-1.14,3.69-3.62,7.32-7.31,11-11,5.34-5.32,10.16-10.56,18.61-12.12,8.76-1.61,15.5-8.33,21.5-14.88a23.27,23.27,0,0,1,15.54-7.71c7.44-.84,14.8-2.45,22.18-3.78,6.85-1.25,10.88-6.37,10-12.65s-6.15-10.22-13-9.45c-4.12.46-8.19,1.32-12.28,2-.06-.3-.11-.61-.16-.92,4.54-2.75,9.13-5.44,13.62-8.28,6.21-3.94,8.09-10,4.88-15.28S121,38.1,114.43,41.66c-4.07,2.2-8.1,4.47-12.91,5.87,4.75-5.09,9.48-10.2,14.26-15.26,6.82-7.21,7.79-13.64,2.77-18.8-5.21-5.37-11.84-4.54-19.2,2.41A192.54,192.54,0,0,1,82.56,30.51c1.62-3,3.26-5.93,4.86-8.91,1.26-2.35,2.65-4.65,3.68-7.1,2.1-5,.58-10-3.65-12.78a10.07,10.07,0,0,0-13.2,1.71,36.63,36.63,0,0,0-4.31,6.1c-6.54,10.61-13,21.27-19.83,32.41-2.27-2.92-1.49-5.82-1.58-8.43-.45-13.31-10.12-20.17-23-16.19a3.76,3.76,0,0,0-2.8,4.18c.12,3.51.2,7,.38,10.51.55,10.83.78,21.61-2,32.27-1.09,4.21-1.4,8.76.17,12.85s.4,6.32-2.48,9C13.12,91.45,7.74,97.18,2.17,102.7.51,104.33-1,106.16.92,108.25Zm87.32-43.5c.32-1.92,1.8-2.18,2.89-2.79q13.08-7.35,26.2-14.6c2.57-1.42,5.4-2.83,7.31.69s-.79,5.18-3.28,6.69c-8.11,4.95-16.23,9.88-24.4,14.72-1.18.7-2.51,2.58-3.89,1.34C91.14,69,89.75,66.7,88.24,64.75Zm-11-19.26c9.6-9,19.12-18,28.71-27,2.41-2.24,5.17-3.34,7.89-.53s1.38,5.53-.83,7.89q-13.8,14.74-27.7,29.4c-.65.69-1.44,1.26-2.37,2.08-2.13-2.85-4-5.57-6.13-8.13C75.59,47.68,76,46.72,77.26,45.49Z"/></g></g></svg>