<svg xmlns="http://www.w3.org/2000/svg" viewBox="0 0 125.65 150.2"><defs><style>.cls-1{fill:#393E46;}</style></defs><g id="Capa_2" data-name="Capa 2"><g id="Capa_1-2" data-name="Capa 1"><path class="cls-1" d="M79.71,116.72a6.82,6.82,0,0,0,.41-2.11A2,2,0,0,0,78,112.89c-4.81-.06-9.61-.08-14.41,0a2.18,2.18,0,0,0-2.29,2.17c-.07,1.08.34,2.17,1.45,2.28a87.3,87.3,0,0,0,15.84,0C78.89,117.33,79.16,117,79.71,116.72Z"/><path class="cls-1" d="M47.39,150.2c3.26.1,3.35-2.53,3.35-5,0-10,0-20,0-30,0-2,.19-4.38-2.46-4.82-6.22-1-10.25-5.23-13-10.12C29.54,90.11,20.56,83.13,12.75,75c-1.62-1.68-6.83-2.77-2.62-7.09,4.48-4.59,7.43-5.3,11.46-1.32A53.74,53.74,0,0,0,39.94,78.33a27.5,27.5,0,0,0,6.18,1.84c8,1.21,12.76,6,14.06,14,.38,2.36.41,5.24,3.67,4.79,3.42-.47,3-3.46,2.68-6A21.6,21.6,0,0,0,48.47,74.15c-4.46-.65-6-2.58-6.95-6.72C38.69,54.57,35.44,41.81,32.36,29a32.72,32.72,0,0,1-.82-3.91c-.27-2.39.41-4.39,3-5s4,1,4.7,3.31c2.81,9.43,6,18.76,8.23,28.32,1.47,6.37,4.61,9,11,9.56,9.45.88,18.82,2.65,28.2,4.2A5.53,5.53,0,0,0,93,62.74c5.38-8,11.06-15.86,16.55-23.83,1.94-2.81,4.3-4.56,7.51-2.47s2.55,5,.58,7.82c-5.68,8-11.27,16.14-17.07,24.09a11.43,11.43,0,0,0-2.23,6.94c-.09,6.67.23,13.37-1,20-1.06,5.76-2.22,11.51-7.16,15.52-1.3,1-1.3,2.61-1.29,4.14q0,15.27,0,30.54c0,2.23-.06,4.66,3,4.74,3.46.08,3.33-2.6,3.35-5,0-5.18,0-10.35,0-15.53,0-7.53-.28-14.64,4.59-21.72,5.06-7.34,5.07-16.85,4.68-25.72a23.28,23.28,0,0,1,5.54-16.45c4.67-5.85,8.74-12.19,13-18.36,4-5.72,3.19-12.19-1.84-16s-11.58-2.89-15.9,2.52c-2.59,3.24-4.86,6.73-7.28,10.1l-.76-.55C98.62,38.35,100,33.21,101.12,28c1.61-7.17-1.34-12.78-7.35-14.25s-11.07,1.92-13.2,9.08c-1.32,4.43-2.57,8.89-5,13.28-.24-7-.51-13.91-.7-20.87C74.61,5.34,70.74.1,63.55,0,56.07-.11,52,5.17,51.68,15.28a192,192,0,0,1-1.53,22.23c-.95-3.25-1.89-6.5-2.86-9.75-.77-2.55-1.41-5.16-2.42-7.61-2.06-5-6.69-7.52-11.62-6.46a10.08,10.08,0,0,0-8.13,10.54,37.19,37.19,0,0,0,1.27,7.36c2.89,12.13,5.83,24.25,8.9,36.94-3.67-.45-5.17-3.06-7.08-4.85C18.48,54.59,6.79,56.58.54,68.47a3.75,3.75,0,0,0,1,4.93c2.56,2.4,5.1,4.82,7.7,7.17C17.26,87.83,25,95.3,30.62,104.79c2.2,3.75,5.21,7.19,9.21,9s4.74,4.18,4.6,8.1c-.29,7.84,0,15.69-.08,23.53C44.34,147.72,44.52,150.12,47.39,150.2Zm31-92.5c-1.13-1.58-.27-2.82.07-4q4-14.44,8.2-28.85c.81-2.82,1.82-5.82,5.66-4.68s3.1,4.22,2.41,7.05c-2.24,9.23-4.49,18.46-6.84,27.66-.34,1.33,0,3.61-1.81,3.7C83.46,58.68,80.82,58,78.38,57.7ZM57,51.84c.44-13.13.77-26.26,1.22-39.38.11-3.29,1.28-6,5.2-6s4.88,2.93,5,6.16q.66,20.19,1.2,40.38c0,1-.12,1.91-.21,3.14-3.52-.51-6.79-1.08-10.08-1.42C57.36,54.57,56.94,53.64,57,51.84Z"/></g></g></svg>