<svg xmlns="http://www.w3.org/2000/svg" viewBox="0 0 137.27 140.94"><defs><style>.cls-1{fill:#393E46;}</style></defs><g id="Capa_2" data-name="Capa 2"><g id="Capa_1-2" data-name="Capa 1"><path class="cls-1" d="M89.82,107.42a6.8,6.8,0,0,1-1.78-1.2,2,2,0,0,1,.28-2.71c3.35-3.43,6.74-6.85,10.19-10.19a2.19,2.19,0,0,1,3.15-.08c.82.72,1.29,1.78.59,2.64a87.78,87.78,0,0,1-11.19,11.21C90.84,107.28,90.43,107.27,89.82,107.42Z"/><path class="cls-1" d="M135.1,102.7c-5.57-5.52-10.95-11.25-16.69-16.58-2.88-2.67-4-5-2.48-9s1.26-8.64.17-12.85c-2.77-10.66-2.54-21.44-2-32.27.18-3.5.26-7,.38-10.51a3.76,3.76,0,0,0-2.8-4.18c-12.83-4-22.5,2.88-23,16.19-.09,2.61.69,5.51-1.58,8.43C80.35,30.8,73.87,20.14,67.33,9.53A36.63,36.63,0,0,0,63,3.43a10.07,10.07,0,0,0-13.2-1.71c-4.23,2.74-5.75,7.76-3.65,12.78,1,2.45,2.42,4.75,3.68,7.1,1.6,3,3.24,5.94,4.86,8.91A192.54,192.54,0,0,1,37.92,15.88c-7.36-7-14-7.78-19.21-2.41-5,5.16-4,11.59,2.78,18.8C26.27,37.33,31,42.44,35.75,47.53c-4.81-1.4-8.84-3.67-12.91-5.87-6.57-3.56-12.52-2.44-15.76,2.91S5.75,55.91,12,59.85c4.49,2.84,9.08,5.53,13.62,8.28,0,.31-.11.62-.16.92-4.09-.67-8.16-1.53-12.28-2C6.26,66.29,1,70.25.11,76.51s3.19,11.4,10,12.65c7.38,1.33,14.74,2.94,22.18,3.78a23.27,23.27,0,0,1,15.54,7.71c6,6.55,12.74,13.27,21.5,14.88,8.45,1.56,13.27,6.8,18.61,12.12,3.66,3.65,7.29,7.34,11,11,1.68,1.66,3.49,3.65,5.88,1.14,2.14-2.25.38-3.92-1.2-5.5l-21.59-21.6c-1.07-1.08-2.18-2.19-3.84-2-6.33.66-11.21-2.6-16-5.92-5.53-3.8-10-8.77-14.82-13.42A11.34,11.34,0,0,0,40.87,88c-9.72-1.53-19.4-3.31-29.09-5-3.37-.58-5.92-2.12-5.12-5.94s3.69-4.18,7.05-3.56c9.51,1.75,19.07,3.27,28.55,5.14,2.93.58,4.69-.17,6.36-2.5,5.54-7.73,10.91-15.61,17-22.92,4.12-5,4.51-9,1-14.56-5.19-8.33-9.53-17.19-14.21-25.84-1.13-2.11-1.41-4.22,1-5.67s4.19-.46,5.69,1.42a34.36,34.36,0,0,1,2.18,3.35C68.16,23.15,74.88,34.48,82,45.57c2.28,3.57,2.52,6-.17,9.66a21.61,21.61,0,0,0,.56,26.1c1.56,2,3.38,4.43,6.13,2.35s.61-4.05-.79-6C83,71.12,83,64.32,87.73,57.83a27.78,27.78,0,0,0,3.07-5.67,53.9,53.9,0,0,0,4.66-21.3c0-5.66,2.62-7.24,9-7.16,6,.07,3.11,4.53,3.16,6.86.23,11.29-1.18,22.57,1.93,33.78,1.5,5.41,1.63,11.24-2,16.36-1.56,2.18.26,3.73,1.67,5.14q10.61,10.65,21.24,21.25c1.74,1.74,3.66,3.53,5.9,1.16C138.32,106.16,136.76,104.33,135.1,102.7ZM44.19,70.8c-1.37,1.24-2.7-.64-3.88-1.34C32.14,64.62,24,59.69,15.91,54.74c-2.49-1.51-5.16-3.25-3.28-6.69s4.74-2.11,7.31-.69Q33.07,54.62,46.14,62c1.09.61,2.57.87,2.89,2.79C47.52,66.7,46.13,69,44.19,70.8ZM60.44,49.21c-2.09,2.56-4,5.28-6.13,8.13-.93-.82-1.72-1.39-2.37-2.08q-13.87-14.67-27.7-29.4C22,23.5,20.67,20.81,23.41,18s5.48-1.71,7.89.53c9.59,9,19.11,18,28.71,27C61.32,46.72,61.68,47.68,60.44,49.21Z"/></g></g></svg>