<svg xmlns="http://www.w3.org/2000/svg" viewBox="0 0 100.7 110.38"><defs><style>.cls-1{fill:#393E46;}</style></defs><g id="Capa_2" data-name="Capa 2"><g id="Capa_1-2" data-name="Capa 1"><path class="cls-1" d="M94.24,57.14c11-7.77,8-38-9.44-40.78a3.53,3.53,0,0,1-3.12-2.51c-4.76-10.94-15.22-16-26.92-13a15.26,15.26,0,0,1-8.13.08C35.14-2.14,25.47,2.57,20.46,13.39c-.63,1.36-1.06,2.37-2.88,2.88-14,3.92-22,20.82-15,34.3C5.68,56.64,8.35,61.84,6,67.21c0,11.3,4.22,19.33,12.58,24.84,1.82,1.2,3.12,2.28,3.75,4.74,3.21,12.5,16.11,17.37,27,10.34,1.23-.8,1.68-.7,2.83.05,11.19,7.25,24.48,1.63,27.12-11.4.39-1.92.65-3.44,3-4.54,11.73-5.57,16.11-17.62,10.93-29.7C92.17,59.4,92.44,58.42,94.24,57.14ZM45.16,29c5.08.67,3,3.59,1.63,5.83-.69,1.15-2,2.1-1.09,3.38,4.7,6.3,1.14,13.44,2.19,20.1.09.57-.24,1.74-.47,1.76-3.78.44-8.26,1.66-11.14-.35-2.63-1.83-6.72-4.43-4.56-9.7,1.86-4.53-.86-8.95-5.3-10.17a7.71,7.71,0,0,0-9.66,5.53c-1.19,4.77,1.42,8.79,6.6,9.81,5,1,6.59,5.47,8.31,9a7.06,7.06,0,0,1-2.23,9.21c-3.61,2.66-3.3,7.92-.21,11.06a7.88,7.88,0,1,0,11.2-11.09c-.56-.6-1.33-1-2-1.54-1.49-1.33-1-3.1-.8-4.67.28-2,2.06-1.2,3.23-1.25,7-.34,7-.31,7,6.52q0,5.5,0,11c0,4,0,8,0,12-.06,8.52-5.36,11.94-13.25,8.64-4.21-1.77-7-5-7.33-9.32-.26-3.63-2-5.06-4.82-6.61A21.65,21.65,0,0,1,11.8,64c.31-1.29.32-2.72,1.79-3.35,4.92-2.11,3.59-3.87-.21-5.75-7.49-3.73-8-10.52-7.16-17.57S9.27,24,17.22,21.75a14,14,0,0,1,6.91-.3c3.25.73,6.13,2,4.89,6.38a7.27,7.27,0,0,0,.05,3c.24,1.69,1.2,2.77,3,2.6a2.33,2.33,0,0,0,2.23-2.77,8.33,8.33,0,0,1,4.4-8.76c1.58-.93,2.61-2.28,1.23-4.08s-3.09-1.29-4.4-.18c-2.1,1.77-3.72,1.67-6.09.21-4.32-2.65-4.63-3.29-1.23-7.19,3.94-4.5,11.56-6.49,17.42-4.54,2.5.83,3.46,4.77,1.34,7.21-1.58,1.83-2.05,2.88-.3,5S50.11,23.43,45,24a2.19,2.19,0,0,0-2.12,2.33A2.44,2.44,0,0,0,45.16,29Zm-10,52.39c-1.63,0-2.71-.69-2.87-2.2a2.45,2.45,0,0,1,2.28-2.76,2.5,2.5,0,0,1,.59,5ZM26.86,47.22A2.42,2.42,0,0,1,24.57,50a2.32,2.32,0,0,1-2.69-2.29c-.18-1.6.72-2.44,2.2-2.71C25.63,45,26.74,45.64,26.86,47.22Zm58.53,5.6a2.7,2.7,0,0,0-3,1.38c-.82,1.52,0,2.59,1.07,3.46A18.26,18.26,0,0,1,89,65.27a17.23,17.23,0,0,1-7.29,20.39c-3.18,1.85-6.27,2.15-9.14-.58-2.54-2.41-4.48-4.92-1.88-8.56a8.58,8.58,0,0,0,.94-3.34c.4-2.13.21-4.33-2.36-4.65-2.37-.31-2.89,1.74-3,3.68a7.18,7.18,0,0,1-4.77,6.44c-1.65.68-3.16,1.39-2.71,3.5s2.28,2.46,3.9,1.76c2.1-.91,2.56.48,3.36,1.73,1.36,2.13,3,4.23,5.32,5.12,3.3,1.26,3.11,3.39,2.26,6a12.87,12.87,0,0,1-14.3,8.3c-4.07-.84-5.91-3.81-6-7.57-.18-13.15-.07-26.3-.15-39.44,0-2.27,1-2.87,3-2.77s4.37-.25,6.48.07c5.51.84,9.7-.79,12.41-5.82,1-1.77,2.49-2.17,4.55-2.23,5.06-.14,8.14-3.66,7.78-8.34a7.68,7.68,0,0,0-8.54-7.16c-4.65.39-7.48,4.07-7,9.09.51,5.66-2.66,9.15-8.33,9.17A37.34,37.34,0,0,1,59,50c-1.89-.22-5,1.07-5.42-.92-.63-3-1.75-6.59.86-9.36,1.76-1.86,1.68-3,0-5S51,29.63,56.05,29a2.5,2.5,0,0,0,2.39-2.69c0-1.51-1-2.24-2.57-2.49-4.44-.68-3.38-3.42-1.46-5.46s1.68-3,0-5c-3-3.49-1.67-6.8,2.74-7.66C65.7,4.12,73,7.72,76.67,15.75c-3.32,1.18-6.5,2.26-8.71,5-1.21,1.47-2.42,3.18-.73,4.84s3.14.42,4.62-1c6.4-6,17-3.82,20.92,4.31,2.7,5.58,3,11.61,2,17.58C93.75,52,91.09,53.51,85.39,52.82ZM77,39.55C77,38,78,37.2,79.55,37A2.41,2.41,0,0,1,82,39.58a2.33,2.33,0,0,1-2.51,2.5A2.37,2.37,0,0,1,77,39.55Z"/></g></g></svg>