<svg xmlns="http://www.w3.org/2000/svg" viewBox="0 0 112.94 127.01"><defs><style>.cls-1{fill:#393E46;}</style></defs><g id="Capa_2" data-name="Capa 2"><g id="Capa_1-2" data-name="Capa 1"><path class="cls-1" d="M65.69,93.29c-2-.33-3.27-1.87-2-3.4,3.32-3.88,7.1-7.38,10.76-11a1.9,1.9,0,0,1,2.71.1,2,2,0,0,1,.58,2.66C74.58,85.94,70.6,89.45,66.7,93,66.49,93.21,66.08,93.19,65.69,93.29Z"/><path class="cls-1" d="M110.66,88.52c-5.07-5.08-10-10.3-15.26-15.18-3.48-3.22-6.25-6.2-3.62-11.36.77-1.52.42-3.61.5-4.52-.14-13.77-2.36-19.05-11.55-28.26-2.47-2.48-5-4.92-7.45-7.41C71.48,20,69.42,18.22,67,18c-5.17-.51-8.18-4-11.43-7.3C53.3,8.41,51.09,6.12,48.78,4,44.41-.14,39-1.15,34,1.37,28.94,4,26.4,8.33,26.94,14c.22,2.24-.22,3.15-2.32,4-5.28,2.2-8.08,6.37-7.88,12.14.08,2.31-.42,3.51-2.66,4.54A9.82,9.82,0,0,0,8.16,44.88c.19,2.59-.48,3.65-2.64,4.95C-.58,53.51-1.93,61.53,3,66.62c9.53,9.81,18.88,19.83,29.56,28.43,5.1,4.11,10.78,7.42,17.48,8a8.29,8.29,0,0,1,5.56,2.75c6.19,6.31,12.48,12.54,18.73,18.79,1.7,1.7,3.57,3.66,5.88,1.22,2-2.07.5-3.94-1.16-5.59-7.21-7.17-14.39-14.39-21.6-21.57-1.18-1.17-2.34-2.3-4.31-2-4.2.57-7.81-1.2-11.34-3.16-7.41-4.11-13-10.36-19-16.1-1.64-1.56-.65-2,.48-3.37,4-4.65,6.64-10.56,13.06-12.86,1-.36,2-2,2.15-3.23,1.05-6.24,6.74-5.82,10.78-7.45,2.6-1,4.58.07,4.35,3.76-.35,5.59,2,10.37,5.72,14.49,1.38,1.54,3,2.3,4.79.84s1.48-3.21.13-4.84c-6.11-7.4-6-14.8,0-22.21,1.33-1.64,1.65-3.4-.12-4.83s-3.4-.71-4.86.77a41.31,41.31,0,0,1-4.35,4.13c-3.63,2.75-7.06,1.7-11.13-2.91-3.24-3.67,1.16-4.38,2.39-6.06a52.28,52.28,0,0,1,6.29-6.43c5.65-5.43,11.59-5.46,17.15,0,3.47,3.37,6.85,6.84,10.28,10.25C85.48,43,88,58.11,84,65c-1.69,2.91-1.33,4.75.93,7,7.16,7,14.19,14.12,21.27,21.19,1.58,1.57,3.28,3.34,5.52,1.28C114.23,92.07,112.37,90.23,110.66,88.52ZM19.3,69a4,4,0,0,1-5.09-.21,89.57,89.57,0,0,1-6.65-6.71A4.11,4.11,0,0,1,7.2,57a4.76,4.76,0,0,1,4-2.5c2.87,0,10.33,7.46,10.39,10.39A4.51,4.51,0,0,1,19.3,69ZM31.35,57.07c-2.15,2-4.6,1.71-6.67-.29-3-2.87-5.87-5.84-8.75-8.82A4.69,4.69,0,0,1,15,42.44a4.22,4.22,0,0,1,4-2.54,4.62,4.62,0,0,1,3.62,1.32c2.93,2.93,5.91,5.82,8.75,8.84C33.47,52.32,33.72,54.89,31.35,57.07Zm5-11.29c-4-4-8.08-7.88-11.82-12.08-2.46-2.77-2-6,.6-8.47s5.38-2.48,8.14-.43c1.45,1.08,2.58,2.58,4,3.73,1.92,1.58,2.39,3,.15,4.7-4.61,3.39-3.33,6.45.42,9.56,1.21,1,2.77,1.9,3,3.82C39,47.69,37.51,46.93,36.33,45.78Zm9.44-20.9c-1.34,1-2.12,1.15-3.27-.07C40,22.18,37.31,19.7,34.86,17a6,6,0,0,1-.9-7C35,7.71,37.1,6.77,39.52,6.45c3.15.08,5,2.29,7,4.26C54.24,18.32,54.2,18.28,45.77,24.88Z"/></g></g></svg>