<svg xmlns="http://www.w3.org/2000/svg" viewBox="0 0 112.94 127.01"><defs><style>.cls-1{fill:#393E46;}</style></defs><g id="Capa_2" data-name="Capa 2"><g id="Capa_1-2" data-name="Capa 1"><path class="cls-1" d="M47.26,93.29c2-.33,3.26-1.87,2-3.4-3.33-3.88-7.1-7.38-10.77-11a1.9,1.9,0,0,0-2.71.1,2,2,0,0,0-.58,2.66c3.2,4.24,7.18,7.75,11.08,11.32C46.45,93.21,46.86,93.19,47.26,93.29Z"/><path class="cls-1" d="M1.23,94.38c2.25,2.06,3.94.29,5.52-1.28C13.83,86,20.87,78.9,28,71.91c2.26-2.21,2.61-4,.92-7C25,58.11,27.46,43,33.07,37.42,36.5,34,39.88,30.54,43.35,27.17c5.56-5.42,11.51-5.39,17.15,0a52.28,52.28,0,0,1,6.29,6.43C68,35.32,72.43,36,69.18,39.7c-4.07,4.61-7.5,5.66-11.12,2.91a41.4,41.4,0,0,1-4.36-4.13c-1.46-1.48-3.11-2.17-4.85-.77s-1.46,3.19-.12,4.83c6,7.41,6.09,14.81,0,22.21-1.35,1.63-1.62,3.4.13,4.84s3.41.7,4.8-.84c3.7-4.12,6.06-8.9,5.71-14.49-.23-3.69,1.75-4.8,4.36-3.76,4,1.63,9.73,1.21,10.77,7.45.2,1.19,1.15,2.87,2.15,3.23C83,63.48,85.68,69.39,89.69,74c1.13,1.32,2.11,1.81.47,3.37-6,5.74-11.63,12-19,16.1-3.53,2-7.14,3.73-11.34,3.16-2-.27-3.13.86-4.31,2-7.21,7.18-14.38,14.4-21.6,21.57-1.66,1.65-3.11,3.52-1.16,5.59,2.31,2.44,4.18.48,5.88-1.22,6.26-6.25,12.54-12.48,18.73-18.79a8.31,8.31,0,0,1,5.56-2.75c6.7-.63,12.38-3.94,17.48-8,10.68-8.6,20-18.62,29.56-28.43,5-5.09,3.6-13.11-2.5-16.79-2.16-1.3-2.82-2.36-2.63-4.95a9.84,9.84,0,0,0-5.93-10.14c-2.23-1-2.74-2.23-2.66-4.54.2-5.77-2.6-9.94-7.88-12.14-2.1-.87-2.53-1.78-2.32-4,.54-5.71-2-10-7.1-12.67C74-1.15,68.54-.14,64.16,4c-2.31,2.16-4.52,4.45-6.74,6.71C54.17,14,51.17,17.46,46,18c-2.46.25-4.53,2-6.33,3.82-2.46,2.49-5,4.93-7.45,7.41C23,38.41,20.8,43.69,20.66,57.46c.08.91-.27,3,.5,4.52,2.63,5.16-.14,8.14-3.62,11.36C12.29,78.22,7.35,83.44,2.29,88.52.58,90.23-1.29,92.07,1.23,94.38ZM91.31,64.85c.07-2.93,7.52-10.41,10.39-10.39a4.76,4.76,0,0,1,4,2.5,4.1,4.1,0,0,1-.36,5.1,89.43,89.43,0,0,1-6.64,6.71,4,4,0,0,1-5.1.21A4.53,4.53,0,0,1,91.31,64.85ZM81.59,50.06c2.84-3,5.82-5.91,8.75-8.84A4.63,4.63,0,0,1,94,39.9a4.24,4.24,0,0,1,4,2.54A4.72,4.72,0,0,1,97,48c-2.89,3-5.78,5.95-8.76,8.82-2.07,2-4.52,2.28-6.67.29C79.23,54.89,79.47,52.32,81.59,50.06Zm-9.42-3.45c.19-1.92,1.76-2.82,3-3.82,3.75-3.11,5-6.17.43-9.56-2.25-1.66-1.78-3.12.14-4.7,1.41-1.15,2.54-2.65,4-3.73,2.76-2.05,5.7-1.94,8.14.43s3.06,5.7.6,8.47c-3.74,4.2-7.8,8.13-11.82,12.08C75.44,46.93,73.93,47.69,72.17,46.61Zm-5.75-35.9c2-2,3.85-4.18,7-4.26,2.42.32,4.49,1.26,5.56,3.6a6,6,0,0,1-.89,7c-2.45,2.69-5.14,5.17-7.65,7.8-1.15,1.22-1.93,1.11-3.27.07C58.74,18.28,58.7,18.32,66.42,10.71Z"/></g></g></svg>