<svg xmlns="http://www.w3.org/2000/svg" viewBox="0 0 81.64 121.45"><defs><style>.cls-1{fill:#393E46;}</style></defs><g id="Capa_2" data-name="Capa 2"><g id="Capa_1-2" data-name="Capa 1"><path class="cls-1" d="M56,88.13c1.19-1.65,1-3.63-1-3.79-5.09-.39-10.24-.19-15.36-.13a1.9,1.9,0,0,0-1.84,2,2,2,0,0,0,1.47,2.29c5.26.73,10.55.4,15.84.17C55.33,88.64,55.61,88.34,56,88.13Z"/><path class="cls-1" d="M24.18,121.45c3.05-.13,3-2.58,3-4.81,0-10-.06-20,.06-30,0-3.16-1-4.71-4.26-5.57C15.33,79,6.4,66.57,6.42,58.66c0-4.84,0-9.68,0-14.52.1-7.76,4.33-12,12.16-12.1,3-.05,6.06-.36,9,.1,2.06.32,5.68-2.29,6,2.59.37,6.14-1.31,9.31-5.81,9.93a42.83,42.83,0,0,1-6,.16c-2.08,0-3.73.67-4,2.89S19,51,21.11,51.21c9.49,1,14.78,6.16,15.69,15.71.2,2.12,1.25,3.56,3.51,3.34s2.91-1.91,2.8-4c-.29-5.54-2-10.59-6.21-14.29-2.77-2.45-2.15-4.64.43-5.74,4-1.7,7.73-6,12.88-2.35,1,.7,2.85,1.21,3.8.76,6.17-2.91,12.22-.6,18.34-.14,1.73.13,2.77-.22,2.72,2-.21,8.32.25,16.7-2.08,24.85-1.11,3.87-2.41,7.68-5.78,10.24-1.59,1.21-1.61,2.82-1.62,4.49,0,10.17,0,20.35,0,30.53,0,2.34.29,4.68,3.13,4.76,3.36.1,3.3-2.61,3.3-5,0-8.84,0-17.68,0-26.52a8.31,8.31,0,0,1,2-5.88c4.3-5.18,6-11.54,6.67-18,1.47-13.63,1-27.34.8-41-.1-7.1-6.72-11.81-13.64-10.1-2.45.6-3.67.32-5.36-1.64a9.84,9.84,0,0,0-11.36-3c-2.31.86-3.51.36-5.1-1.33C42,4.69,37.09,3.72,31.8,5.9c-2.1.87-3.05.53-4.48-1.2C23.66.28,18.8-1,13.34.76,8.07,2.46,4.94,7,4.74,13c-.1,3.17,0,6.34,0,9.51,0,4.64.38,9.22-2.91,13.25C.24,37.69,0,40.39,0,43c0,3.5,0,7,0,10.51,0,13,2.18,18.31,11.82,28.15.7.58,1.93,2.31,3.54,2.83C20.88,86.24,21,90.3,20.84,95c-.26,7.16-.06,14.34-.05,21.52C20.79,119,20.76,121.6,24.18,121.45ZM67,36.88c-2-2.13-2-12.69,0-14.71a4.77,4.77,0,0,1,4.63-1.08A4.11,4.11,0,0,1,75,25a90.08,90.08,0,0,1,0,9.44,4,4,0,0,1-3.46,3.75A4.51,4.51,0,0,1,67,36.88Zm-17.33-3.6c-.13-4.14-.06-8.29-.07-12.43a4.65,4.65,0,0,1,1.63-3.5,4.24,4.24,0,0,1,4.6-1,4.71,4.71,0,0,1,3.26,4.55c.07,4.15.12,8.29,0,12.43,0,2.88-1.59,4.81-4.51,4.92C51.41,38.37,49.76,36.38,49.67,33.28Zm-9.1,4.23c-1.22-1.49-.76-3.24-.61-4.79.45-4.85-.8-7.92-6.46-7.07-2.76.42-3.46-.95-3.22-3.42.19-1.81-.08-3.67.19-5.46.5-3.4,2.65-5.41,6.05-5.46,3.6-.05,6.2,1.87,6.42,5.56.32,5.62.23,11.27.18,16.91C43.1,35.43,42.58,37,40.57,37.51ZM11.11,16.19c0-2.81-.23-5.68,1.94-8C15,6.74,17.12,5.94,19.53,6.84a6,6,0,0,1,4.29,5.55c.17,3.64,0,7.29.11,10.93.05,1.67-.58,2.15-2.26,2.35C11,27,11,27,11.11,16.19Z"/></g></g></svg>