<svg xmlns="http://www.w3.org/2000/svg" viewBox="0 0 127.44 148.5"><defs><style>.cls-1{fill:#393E46;}</style></defs><g id="Capa_2" data-name="Capa 2"><g id="Capa_1-2" data-name="Capa 1"><path class="cls-1" d="M80.17,114.77a2.33,2.33,0,0,1-1.69-4q5.05-5.16,10.24-10.2a2,2,0,0,1,3.09,0c.75.76,1.32,1.72.55,2.64a87.76,87.76,0,0,1-11.24,11.24C80.89,114.72,80.49,114.7,80.17,114.77Z"/><path class="cls-1" d="M125,109.8q-9-9-18.06-18c-1.35-1.34-2.07-2.44-1.57-4.71,3-13.73,1.94-26.47-9.89-36.28-2.69-2.22-5-4.94-7.49-7.36-3.11-3-6.76-5.08-11.15-4.89-2.88.12-4.56-1.08-6.26-3.14C62.18,25.23,53.77,15.09,45.17,5.1,39.92-1,32.06-1.63,26.52,3.2s-5.84,12.2-.86,18.36c4.07,5,8.28,10,12.43,14.94l-.6.66c-6.06-4.11-12-8.35-18.2-12.28s-13-2.79-16.91,2.63c-4,5.58-2.88,12.57,3,17.24,3.67,2.89,7.5,5.56,11.3,8.28,4.27,3.06,9.82,5.44,6,12.43a3.26,3.26,0,0,0,0,2c.37,1.8-.59,2.52-2,3.46-7.41,4.88-8.2,12.22-2,18.47C26,96.72,33.24,104.11,40.8,111.16c7.23,6.74,14.92,13,25.48,13.59,1.93.11,2.81,1.66,4,2.8q9.43,9.33,18.78,18.73c1.58,1.58,3.32,3.33,5.54,1.31,2.47-2.25.76-4.16-1-5.91C87.3,135.44,81,129.24,74.81,122.92c-2.72-2.78-5.22-5-9.75-4.82-4.69.13-8.79-2.82-12.62-5.56-6.13-4.4-11.24-9.9-16.87-15.5,3.84-2,6.25-4.88,7-8.87.42-2.41,2.39-1.91,3.81-2.44C54,82.88,56.82,73.64,51,67.88S41.11,53.33,30.57,54.93c-.4.06-.92-.36-1.32-.65-6.85-5-13.82-9.91-20.48-15.19a5.53,5.53,0,0,1,.47-9.3c3-1.81,5.47-.37,7.86,1.25Q32.21,41.29,47.27,51.6c2.25,1.54,5.88,2.66,1.92,6.24a2.13,2.13,0,0,0,0,2.82C53.7,65.11,57,71.46,64.41,71.8c2.81.13,3.67.89,3.6,3.71a21,21,0,0,0,5.31,14.2c1.39,1.66,3,3,5.12,1.48,2.38-1.73,1.3-3.58-.12-5.56-5.38-7.51-5.34-13.41,0-21,1.23-1.74,2.47-3.44.44-5.24s-3.64-.77-5.22.83a30.86,30.86,0,0,1-4.79,4.37c-3.42,2.28-6.84.94-10.64-3.58-3-3.52,1.22-4.11,2.4-5.65a58.89,58.89,0,0,1,7-7.12c5.07-4.73,11-4.79,16.08-.06,3.66,3.41,7.11,7,10.64,10.59,5.91,5.91,8.31,20.84,4.11,28-1.65,2.78-1.16,4.47.89,6.49,7.13,7,14.18,14.14,21.26,21.22,1.69,1.69,3.59,3.69,5.89,1.31S126.69,111.49,125,109.8ZM30.07,63.14c1.56-1.93,3.94-2.63,5.77-1.22A60.26,60.26,0,0,1,47,73.18a4.71,4.71,0,0,1,.56,1.56c-.15,2.09-.87,3.59-2.43,4.44a4.41,4.41,0,0,1-5.53-.57c-3.23-3.11-6.44-6.26-9.47-9.55A4.24,4.24,0,0,1,30.07,63.14Zm6,23.73a4.53,4.53,0,0,1-7.34,3.35,49.39,49.39,0,0,1-6.66-6.67,4.09,4.09,0,0,1-.35-5.09,5,5,0,0,1,3.86-2.52C29,75.91,36.33,83.71,36.1,86.87ZM64.39,42.46c-7.12,6.9-7,7-13.41-.62L30.45,17.36C28.57,15.11,28,12.59,29.32,10a5.88,5.88,0,0,1,5.79-3.44c2.27-.14,3.93,1.21,5.37,2.91,8,9.55,16,19.15,24.12,28.64C66.09,39.82,66.17,40.75,64.39,42.46Z"/></g></g></svg>