<svg xmlns="http://www.w3.org/2000/svg" viewBox="0 0 127.44 148.5"><defs><style>.cls-1{fill:#393E46;}</style></defs><g id="Capa_2" data-name="Capa 2"><g id="Capa_1-2" data-name="Capa 1"><path class="cls-1" d="M47.27,114.77a2.33,2.33,0,0,0,1.69-4q-5.05-5.16-10.24-10.2a2,2,0,0,0-3.09,0c-.76.76-1.32,1.72-.55,2.64a86.5,86.5,0,0,0,11.24,11.24C46.55,114.72,47,114.7,47.27,114.77Z"/><path class="cls-1" d="M1,115.71c2.3,2.38,4.19.38,5.89-1.31C14,107.32,21,100.21,28.17,93.18c2-2,2.53-3.71.89-6.49-4.21-7.12-1.8-22,4.1-28,3.54-3.55,7-7.18,10.65-10.59,5.07-4.73,11-4.67,16.08.06a59.64,59.64,0,0,1,7,7.12c1.18,1.54,5.36,2.13,2.4,5.65-3.8,4.52-7.22,5.86-10.65,3.58a31.8,31.8,0,0,1-4.79-4.37c-1.58-1.6-3.3-2.52-5.21-.83s-.79,3.5.44,5.24c5.37,7.63,5.41,13.53,0,21-1.42,2-2.5,3.83-.12,5.56,2.08,1.52,3.73.18,5.11-1.48a20.92,20.92,0,0,0,5.31-14.2c-.06-2.82.79-3.58,3.61-3.71,7.41-.34,10.71-6.69,15.26-11.14a2.13,2.13,0,0,0,0-2.82c-4-3.58-.34-4.7,1.92-6.24Q95.25,41.29,110.34,31c2.39-1.62,4.89-3.06,7.86-1.25a5.54,5.54,0,0,1,.47,9.3C112,44.37,105,49.25,98.18,54.28c-.39.29-.91.71-1.31.65-10.55-1.6-14.73,7.22-20.47,12.95s-3,15,4.71,17.85c1.41.53,3.39,0,3.81,2.44.7,4,3.11,6.89,7,8.87-5.63,5.6-10.75,11.1-16.88,15.5-3.82,2.74-7.92,5.69-12.61,5.56-4.53-.13-7,2-9.76,4.82-6.18,6.32-12.48,12.52-18.74,18.76-1.75,1.75-3.46,3.66-1,5.91,2.22,2,4,.27,5.54-1.31q9.39-9.37,18.78-18.73c1.15-1.14,2-2.69,4-2.8,10.56-.64,18.24-6.85,25.48-13.59,7.56-7,14.81-14.44,22.09-21.79,6.19-6.25,5.39-13.59-2-18.47-1.43-.94-2.38-1.66-2-3.46a3.26,3.26,0,0,0,0-2c-3.81-7,1.75-9.37,6-12.43,3.8-2.72,7.63-5.39,11.29-8.28,5.92-4.67,7.07-11.66,3-17.24-3.91-5.42-10.64-6.6-16.91-2.63S96,33.05,90,37.16l-.6-.66c4.15-5,8.36-9.9,12.43-14.94,5-6.16,4.57-13.62-.86-18.36S87.52-1,82.27,5.1c-8.6,10-17,20.13-25.41,30.28-1.7,2.06-3.39,3.26-6.26,3.14-4.39-.19-8,1.91-11.15,4.89-2.53,2.42-4.8,5.14-7.49,7.36-11.84,9.81-12.87,22.55-9.89,36.28.49,2.27-.22,3.37-1.57,4.71q-9.06,9-18.06,18C.74,111.49-1.25,113.37,1,115.71ZM97.28,69.06c-3,3.29-6.24,6.44-9.47,9.55a4.43,4.43,0,0,1-5.54.57c-1.55-.85-2.27-2.35-2.43-4.44a4.76,4.76,0,0,1,.57-1.56A60.52,60.52,0,0,1,91.59,61.92c1.84-1.41,4.22-.71,5.78,1.22A4.24,4.24,0,0,1,97.28,69.06Zm4.55,6.88a5,5,0,0,1,3.85,2.52,4.08,4.08,0,0,1-.34,5.09,50,50,0,0,1-6.66,6.67,4.53,4.53,0,0,1-7.34-3.35C91.1,83.71,98.46,75.91,101.83,75.94Zm-39-37.87C70.94,28.58,78.92,19,87,9.43c1.43-1.7,3.09-3,5.37-2.91A5.88,5.88,0,0,1,98.12,10c1.36,2.63.75,5.15-1.14,7.4L76.46,41.84c-6.37,7.6-6.29,7.52-13.42.62C61.27,40.75,61.34,39.82,62.84,38.07Z"/></g></g></svg>