<svg xmlns="http://www.w3.org/2000/svg" viewBox="0 0 81.79 150.27"><defs><style>.cls-1{fill:#393E46;}</style></defs><g id="Capa_2" data-name="Capa 2"><g id="Capa_1-2" data-name="Capa 1"><path class="cls-1" d="M56.24,116.88a2.32,2.32,0,0,0-1.6-4q-7.23-.09-14.45,0A2,2,0,0,0,38,115.13c0,1.07.29,2.15,1.48,2.26a87.06,87.06,0,0,0,15.9,0C55.69,117.36,56,117.06,56.24,116.88Z"/><path class="cls-1" d="M24.2,150.26c3.31.05,3.23-2.71,3.24-5.1,0-10-.05-20,0-30,0-2.89-.83-4.42-4-5.23-8-2.05-16.86-14.31-16.86-22.67,0-5-.13-10,0-15,.24-6.93,4.48-11.08,11.41-11.32a60.55,60.55,0,0,1,10,.07c1.92.26,5.3-2.28,5.7,2.3.5,5.89-1,9.25-5,10.06a31.66,31.66,0,0,1-6.47.3c-2.26,0-4.12.55-4.28,3.1-.16,2.71,1.92,3,4,3.4C31.23,81.71,35.43,85.85,36.94,95c.4,2.4.94,4.48,3.85,4,2.54-.4,2.76-2.51,2.57-4.67a21,21,0,0,0-6.29-13.79c-2-2-2-3.1-.07-5.18,5-5.47,2.84-12.3,2.91-18.67a2.12,2.12,0,0,0-2-2c-5.33.27-3.56-3.08-3.06-5.77Q38.21,31,41.63,13.08c.55-2.84,1.29-5.62,4.67-6.44a5.54,5.54,0,0,1,6.91,6.25c-1,8.43-2.45,16.82-3.74,25.22-.08.48-.15,1.15-.47,1.38C40.41,45.82,43.69,55,43.68,63.13s8.51,12.69,16,9.29c1.37-.63,2.41-2.38,4.42-1,3.31,2.33,7.06,2.68,11.17,1.36,0,7.94.26,15.45-1,22.89-.76,4.64-1.57,9.63-5,12.86s-3.53,6.41-3.49,10.3c.09,8.84,0,17.68,0,26.52,0,2.48.14,5,3.47,4.88,3-.14,3-2.61,3-4.84,0-8.84,0-17.69,0-26.53,0-1.61-.47-3.33.81-4.77,7-7.92,8.06-17.75,8.41-27.63.37-10.33.27-20.68.22-31,0-8.79-5.8-13.42-14.49-11.64-1.67.35-2.85.51-3.86-1-.37-.55-.84-1.24-1.4-1.4-7.63-2.25-5.39-7.87-4.53-13,.76-4.6,1.58-9.2,2.13-13.84C60.47,7,56.34,1.27,49.54.17,43-.89,37.35,3,35.73,10.27s-2.81,14.37-4.19,21.55l-.89,0c-.58-6.45-1.09-12.91-1.77-19.35C28,4.55,22.48-.44,15.29.06S2.85,6.56,3.44,14.59c1,13.14,2.2,26.26,3.45,39.37.25,2.66-.09,4.71-2.21,6.65C1.44,63.58.34,67.65.25,72c-.08,3.5.24,7-.09,10.51-1.44,15.3,6.84,25,18.66,32.64,2,1.26,2.23,2.54,2.22,4.44,0,8.51,0,17,0,25.53C21,147.46,20.94,150.2,24.2,150.26ZM59.28,49.19c.19,4.48.14,9,.06,13.45A4.46,4.46,0,0,1,55.83,67c-1.71.49-3.28-.06-4.86-1.42A4.83,4.83,0,0,1,50.26,64a60.23,60.23,0,0,1,0-15.87c.3-2.3,2.48-3.48,4.95-3.22A4.24,4.24,0,0,1,59.28,49.19Zm8.08,1.66a5,5,0,0,1,4.51-1,4.1,4.1,0,0,1,3.36,3.85,49.41,49.41,0,0,1,0,9.42A4.53,4.53,0,0,1,67.67,66C65.27,63.92,65,53.2,67.36,50.85ZM13,51.64C12,39.2,10.89,26.77,9.82,14.33c-.19-2.22,0-4.34,1.73-5.85a5.9,5.9,0,0,1,6.53-1.67c2.82.9,4.18,3.12,4.43,6q1.39,15.92,2.8,31.83c.87,9.87.87,9.76-9,9.92C13.8,54.64,13.19,53.93,13,51.64Z"/></g></g></svg>